<svg xmlns="http://www.w3.org/2000/svg" viewBox="0 0 21.58 23"><path fill="#494368" d="M1.87 20.64a.5.5 0 0 1 .37.15.51.51 0 0 1 .16.38V23H.53a.5.5 0 0 1-.37-.16.51.51 0 0 1-.16-.37v-.87h1.96v-.43a.09.09 0 0 0-.09-.1H0v-.43zm.09 1.92v-.52H.44v.43a.09.09 0 0 0 .09.09zm4.23-1.92h.47L5.77 23h-.35l-.8-1.76L3.87 23H3.5l-.92-2.36h.46l.64 1.56.68-1.56h.5l.72 1.56zm2.48 0a.5.5 0 0 1 .37.15.51.51 0 0 1 .16.38v.87H7.24v.43a.09.09 0 0 0 .09.09H9.2V23H7.33a.5.5 0 0 1-.37-.16.51.51 0 0 1-.16-.37v-1.3a.5.5 0 0 1 .16-.37.51.51 0 0 1 .37-.16zm-1.43.96h1.52v-.43a.09.09 0 0 0-.1-.1H7.33a.09.09 0 0 0-.08.1zm4.76-.43v.09h-.44v-.09a.09.09 0 0 0-.1-.09h-1.34a.09.09 0 0 0-.09.09v.34a.09.09 0 0 0 .1.1h1.34a.5.5 0 0 1 .37.15.51.51 0 0 1 .15.37v.34a.5.5 0 0 1-.15.38.51.51 0 0 1-.37.15h-1.35a.5.5 0 0 1-.37-.15.51.51 0 0 1-.15-.38v-.09h.43v.1a.09.09 0 0 0 .1.08h1.34a.09.09 0 0 0 .09-.09v-.34a.09.09 0 0 0-.1-.09h-1.34a.5.5 0 0 1-.37-.15.51.51 0 0 1-.15-.38v-.34a.5.5 0 0 1 .15-.37.51.51 0 0 1 .37-.16h1.35a.5.5 0 0 1 .37.16.5.5 0 0 1 .15.37zm.93-.53h1.34a.5.5 0 0 1 .37.15.51.51 0 0 1 .16.38v1.3a.5.5 0 0 1-.16.37.51.51 0 0 1-.37.16h-1.35a.5.5 0 0 1-.37-.16.51.51 0 0 1-.15-.37v-1.3a.5.5 0 0 1 .15-.38.51.51 0 0 1 .37-.15zm1.34.44h-1.35a.09.09 0 0 0-.09.09v1.3a.09.09 0 0 0 .1.09h1.34a.09.09 0 0 0 .09-.1v-1.3a.08.08 0 0 0-.03-.06.1.1 0 0 0-.06-.02zm3.96-.44a.5.5 0 0 1 .38.15.51.51 0 0 1 .15.38V23h-.43v-1.83a.08.08 0 0 0-.03-.07.09.09 0 0 0-.07-.02h-.93a.09.09 0 0 0-.09.09V23h-.44v-1.83a.09.09 0 0 0-.09-.1h-.93a.09.09 0 0 0-.09.1V23h-.44v-2.36zm2.83 0a.5.5 0 0 1 .37.15.51.51 0 0 1 .15.38v.87h-1.96v.43a.09.09 0 0 0 .1.09h1.86V23h-1.87a.5.5 0 0 1-.37-.16.51.51 0 0 1-.16-.37v-1.3a.5.5 0 0 1 .16-.37.51.51 0 0 1 .37-.16zm-1.44.96h1.52v-.43a.09.09 0 0 0-.09-.1h-1.34a.09.09 0 0 0-.09.1z"/><path d="M2 0h18v18H2z"/><path fill="#2e001e" stroke="#ff2bc2" d="M2.5.5h17v17h-17z"/><path fill="#ff2bc2" d="M17.45 9.17L14 6l-.48.53 2.87 2.63H5.06l2.88-2.63L7.45 6 4 9.17v2.08a1.89 1.89 0 0 0 2.02 1.71h2.13a1.89 1.89 0 0 0 2.02-1.7V9.87h1.1v1.37a1.89 1.89 0 0 0 2.03 1.71h2.13a1.89 1.89 0 0 0 2.02-1.7z"/></svg>
